<svg xmlns="http://www.w3.org/2000/svg" width="256" height="256" viewBox="0 0 194 194" role="img" aria-label="GotIt extension icon"><rect width="194" height="194" rx="45" fill="#286F5C"/><path d="M97 149c-8 7-23 6-29-5-15 2-25-11-21-24-12-8-10-23 0-30-5-13 4-25 18-26 4-13 20-17 32-9 12-8 28-4 32 9 14 1 23 13 18 26 10 7 12 22 0 30 4 13-6 26-21 24-6 11-21 12-29 5Z" fill="none" stroke="#FFFEFB" stroke-width="7" stroke-linejoin="round"/><path d="M97 55v94M77 71c-9 5-10 15-4 21m-20 20c9-5 18-1 20 8m-1 17c3-10 11-14 25-11m20-55c9 5 10 15 4 21m20 20c-9-5-18-1-20 8m1 17c-3-10-11-14-25-11" fill="none" stroke="#FFFEFB" stroke-width="5.5" stroke-linecap="round"/><circle cx="153" cy="43" r="24" fill="#F8D98D"/><path d="M153 27c2 10 6 14 16 16-10 2-14 6-16 16-2-10-6-14-16-16 10-2 14-6 16-16Z" fill="#286F5C"/><text x="97" y="176" text-anchor="middle" fill="#F8D98D" font-family="Arial,Microsoft YaHei,Noto Sans CJK SC,Noto Naskh Arabic,sans-serif" font-size="20" font-weight="700" letter-spacing="-1">A<tspan dx="1">文</tspan><tspan dx="1">ع</tspan></text></svg>
